<svg fill="none" height="640" viewBox="0 0 640 640" width="640" xmlns="http://www.w3.org/2000/svg" xmlns:xlink="http://www.w3.org/1999/xlink"><linearGradient id="a" gradientUnits="userSpaceOnUse" x1="393.088" x2="195.858" y1="573.544" y2="31.6606"><stop offset="0" stop-color="#ff4c0d"/><stop offset="1" stop-color="#fc9502"/></linearGradient><clipPath id="b"><path d="m110 53.9651h420v532.07h-420z"/></clipPath><g clip-path="url(#b)" clip-rule="evenodd" fill-rule="evenodd"><path d="m519.308 310.395c34.364 108.05-20.92 224.37-126.661 262.857-108.544 39.506-230.205-20.974-269.293-128.368-5.225-14.354-15.919-42.95-12.375-99.054 2.121-33.575 3.441-54.664 1.869-72.929-.864-10.039-1.361-26.307 20.908-7.61 13.131 11.024 20.748 30.981 20.748 30.981s21.447-34.285 25.411-86.315c5.811-76.274-32.09-106.809-50.08-131.088-6.225-8.3984-14.141-24.6826 7.669-24.4663 22.224.2221 87.313 18.2124 128.455 47.1713 58.716 41.329 91.745 89.431 91.745 89.431s6.674-20.082 5.116-37.986c-1.759-20.219-8.326-38.487 14.714-24.62 21.912 13.186 57.134 40.135 81.916 68.924 45 52.28 59.858 113.072 59.858 113.072z" fill="url(#a)"/><path d="m392.637 573.259c-75.058 27.319-158.427-12.422-186.214-88.765-16.766-46.064-8.694-80.674 15.485-132.424 15.482-33.136 27.389-71.246 29.671-95.076.45-4.692-2.799-27.104 22.792-8.792 13.423 9.603 35.447 27.353 51.327 43.564 27.377 27.95 42.812 59.076 42.812 59.076s11.641-14.343 13.479-41.031c.594-8.602-2.96-39.055 25.829-17.792 21.124 15.605 53.32 45.767 70.41 93.547 27.786 76.342-10.536 160.375-85.591 187.693z" fill="#fc9502"/><path d="m339.726 421.493c19.34-7.039 32.598 29.387 74.867 69.083 28.146 26.432 15.885 68.877-19.912 81.906-35.796 13.029-65.103-9.73-78.355-46.139-13.251-36.408 4.06-97.811 23.4-104.85z" fill="#fce202"/></g></svg>