<svg fill="none" height="600" viewBox="0 0 600 600" width="600" xmlns="http://www.w3.org/2000/svg"><g fill="#539bf5"><path d="m455.75 156c-43.119-36.082-97.526-55.899-153.75-56-121 0-224.2499 91.25-251.9999 222.5-.7138 2.643-.8843 5.403-.5014 8.113s1.3114 5.315 2.7293 7.656c1.4179 2.342 3.2958 4.372 5.5202 5.967 2.2245 1.595 4.7492 2.723 7.4218 3.315 2.6725.592 5.4373.636 8.1273.129 2.6901-.506 5.2495-1.553 7.5236-3.077 2.2741-1.523 4.2157-3.492 5.7074-5.787 1.4918-2.295 2.5027-4.869 2.9718-7.566 23.7499-112.75 110.4999-191.25 212.4999-191.25 39.771.139 78.563 12.344 111.25 35z"/><path d="m466.75 188.25-147 65.75c-9.212-3.645-19.299-4.471-28.981-2.373-9.683 2.097-18.523 7.024-25.401 14.154-6.878 7.131-11.482 16.143-13.229 25.895-1.747 9.751-.558 19.802 3.416 28.877 3.975 9.074 10.556 16.764 18.907 22.092 8.352 5.329 18.099 8.056 28.003 7.836s19.52-3.377 27.627-9.071 14.34-13.668 17.908-22.91c1.496-3.687 2.504-7.553 3-11.5.41.106.84.106 1.25 0l125-100c14.75-13.5 6.75-26.5-10.5-18.75z"/><path d="m501 270.75c11.598 0 21-9.402 21-21s-9.402-21-21-21-21 9.402-21 21 9.402 21 21 21z"/><path d="m529 347c11.598 0 21-9.402 21-21s-9.402-21-21-21-21 9.402-21 21 9.402 21 21 21z"/></g></svg>