<svg fill="none" height="600" viewBox="0 0 600 600" width="600" xmlns="http://www.w3.org/2000/svg"><path d="m300.777 301.607c32.859 0 62.488 13.879 83.315 36.096 15.318-17.661 37.688-28.281 61.896-28.281h21.743c45.436 0 82.269 37.066 82.269 82.789s-36.833 82.789-82.269 82.789h-344.781c-40.2891 0-72.95-32.868-72.95-73.412s32.6609-73.412 72.95-73.412h54.321c13.922 0 27.25 3.952 38.683 11.16 20.857-23.149 51.142-37.729 84.823-37.729zm-123.506 57.739h-54.321c-23.1829 0-41.9766 18.912-41.9766 42.242s18.7937 42.243 41.9766 42.243h63.89l-.015-2.199-.155-26.05-.02-.107.025-1.175.125-4.175v-.2l.181-2.814c.102-1.397.229-2.779.381-4.153.051-.449.105-.909.161-1.367.191-1.573.415-3.131.67-4.679.091-.534.182-1.059.276-1.583.689-3.861 1.579-7.663 2.654-11.387.264-.898.534-1.791.814-2.68.355-1.136.73-2.262 1.122-3.379l.855-2.344c1.292-3.45 2.749-6.816 4.359-10.094l.173-.344-.596-.344c-6.184-3.509-13.224-5.411-20.579-5.411zm290.46-18.755h-21.743c-17.749 0-33.893 9.138-43.228 23.815l.181.356c1.745 3.493 3.316 7.087 4.701 10.773.184.502.365.995.543 1.489.58 1.599 1.127 3.234 1.637 4.885.125.418.254.843.38 1.269l.62 2.159.574 2.169c.631 2.488 1.18 5.008 1.644 7.558.108.615.215 1.231.317 1.849.227 1.358.427 2.726.603 4.102.104.835.202 1.668.29 2.504.126 1.182.234 2.38.322 3.584.056.769.104 1.528.145 2.289l.124 3.081.042 3.109v28.249h52.848c28.33 0 51.296-23.111 51.296-51.62s-22.966-51.62-51.296-51.62zm-86.181 55.384v.075l.025.05zm-5.15-14.8.05.075-.021-.057-.154-.318zm-231.707-184.046c34.228 0 62.079 27.561 62.079 61.69 0 34.13-27.851 61.69-62.079 61.69-34.227 0-62.0786-27.56-62.0786-61.69 0-34.129 27.8516-61.69 62.0786-61.69zm314.401-28.132c36.329 0 65.865 29.321 65.865 65.597 0 36.277-29.536 65.598-65.865 65.598-36.33 0-65.866-29.321-65.866-65.598 0-36.276 29.536-65.597 65.866-65.597zm-314.401 59.301c-17.237 0-31.105 13.724-31.105 30.521s13.868 30.521 31.105 30.521 31.106-13.724 31.106-30.521-13.869-30.521-31.106-30.521zm156.86-103.298c40.243 0 72.95 32.47 72.95 72.63 0 40.161-32.707 72.631-72.95 72.631-40.242 0-72.95-32.47-72.95-72.631 0-40.16 32.708-72.63 72.95-72.63zm157.541 75.166c-19.318 0-34.893 15.462-34.893 34.428 0 18.967 15.575 34.428 34.893 34.428 19.317 0 34.892-15.461 34.892-34.428 0-18.966-15.575-34.428-34.892-34.428zm-157.541-43.997c-23.23 0-41.977 18.611-41.977 41.461 0 22.851 18.747 41.461 41.977 41.461s41.977-18.61 41.977-41.461c0-22.85-18.747-41.461-41.977-41.461zm78.147 233.406.375 1.15-.199-.694-.401-1.181zm0 0-.4-1.225-.007-.062-.268-.713-.025-.075-.146-.418-.204-.532-.025-.075-.19-.523-.26-.627-.225-.575-.075-.175-.064-.179-.011-.046-.175-.425.1.275-.825-1.95-.15-.35-.072-.144-.278-.581-.225-.475.025.025-.475-.975-.1-.2-.1-.2.05.075-.02-.063-.282-.584-.248-.453-.025-.05-.5-.975-.25-.475-.175-.325-.125-.225-.4-.725-.44-.809c-.428-.75-.866-1.492-1.316-2.227l-1.26-1.996-.709-1.043.375.6-1.102-1.681c-15.008-21.519-40.002-35.617-68.321-35.617-28.283 0-53.248 14.06-68.262 35.509l-.033.066c-2.005 2.869-3.819 5.851-5.435 8.927l-.272.496-.5 1 .2-.45-.525 1.1-.05.125-.1.2-.467.969-.208.456-.025.075-.25.5-.05.15-.16.365-.29.61.15-.3-1.963 4.927c-.641 1.77-1.221 3.562-1.738 5.374l-1.366 5.493-.133.581-.05.275-.125.6-.177 1.021-.123.679v.05l-.125.7v.075l-.1.6-.05.3-.05.25v.025l-.458 3.828c-.265 2.688-.399 5.402-.399 8.134l.157 26.145.013 2.199h166.097v-28.249c0-1.922-.066-3.834-.196-5.733l-.064-.524.025.05c-.012-.215-.025-.382-.038-.549l.013.499-.025-.55-.05-.525-.061-.801-.064-.349-.125-1.2-.075-.6v-.075l-.004-.161-.25-1.8-.14-.909-.284-1.645-.397-1.96-.075-.4-.1-.425-.186-.913-.239-.912.175.8-.2-.85-.175-.725-.075-.275v-.05l-.512-1.972-.063-.153-.2-.675z" fill="#539bf5"/></svg>