<svg fill="none" height="600" viewBox="0 0 600 600" width="600" xmlns="http://www.w3.org/2000/svg" xmlns:xlink="http://www.w3.org/1999/xlink"><clipPath id="a"><path d="m0 0h600v600h-600z"/></clipPath><g clip-path="url(#a)" clip-rule="evenodd" fill="#539bf5" fill-rule="evenodd"><path d="m150 60-130 75v342.5l130 75v-65l-75-42.5v-277.5l75-42.5z"/><path d="m20 200v212.5l55 32.5v-277.5z"/><path d="m20 200 55-12.5v-20z"/><path d="m450 60v65l75 42.5v277.5l-75 42.5v65l130-75v-342.5z"/><path d="m525 445 55-32.5v-212.5l-55-32.5z"/><path d="m525 187.5 55 12.5-55-32.5z"/><path d="m525 427.5v17.5l55-32.5z"/><path d="m300 137.5-75 40 75 40 75-40z"/><path d="m310 310 72.5-40v-77.5l-72.5 40z"/><path d="m292.5 232.5-75-40v77.5l75 40z"/><path d="m214 284.405-72.5 40 72.5 40 70-40z"/><path d="m219 456.905 72.5-40v-80l-72.5 40z"/><path d="m206.5 376.905-72.5-40v80l72.5 40z"/><path d="m388 284.405-72.5 40 72.5 40 72.5-40z"/><path d="m395.5 456.905 72.5-40v-80l-72.5 40z"/><path d="m380.5 376.905-72.5-40v80l72.5 40z"/></g></svg>