<svg fill="none" height="600" viewBox="0 0 600 600" width="600" xmlns="http://www.w3.org/2000/svg"><g fill="#539bf5"><path d="m447.75 255h-45.5l-102.25 270h45.5l25-67.5h108l25 67.5h46.5zm-59.75 157.5 37-97.5 37 97.5z"/><path clip-rule="evenodd" d="m319.75 369.25-57.75-56.5c38.868-42.39 67.892-92.842 85-147.75h66.75v-45h-159.25v-45h-45.5v45h-159v44.75h253.75c-15.654 44.599-40.142 85.583-72 120.5-20.589-22.689-38.228-47.889-52.5-75h-45.5c17.17 37.452 40.023 72.026 67.75 102.5l-115.5 112.25 32.25 32.5 113.5-112.5 70.75 70z" fill-rule="evenodd"/></g></svg>