<svg fill="none" height="600" viewBox="0 0 600 600" width="600" xmlns="http://www.w3.org/2000/svg"><path d="m300 495.473c14.992 0 27.145 12.206 27.145 27.264 0 15.057-12.153 27.263-27.145 27.263s-27.145-12.206-27.145-27.263c0-15.058 12.153-27.264 27.145-27.264zm33.469-359.053c4.012 0 7.689 2.944 8.023 6.87l6.351 43.185c10.362 3.926 19.722 9.488 28.413 16.031l41.45-16.358c4.011-1.309 8.356 0 10.362 3.599l33.427 56.599c2.006 3.598 1.003 7.852-2.006 10.469l-35.432 27.154c1.003 5.235 1.337 10.469 1.337 16.031s-.669 10.796-1.337 16.031l35.767 27.154c3.008 2.617 4.011 6.871 2.005 10.469l-33.427 56.599c-2.34 3.599-6.685 4.907-10.362 3.599l-41.784-16.358c-8.357 6.543-18.051 11.778-28.079 16.031l-6.351 43.185c-.668 3.926-4.345 6.87-8.357 6.87h-66.854c-4.345 0-7.688-2.944-8.356-6.87l-6.352-43.185c-10.362-3.926-19.722-9.488-28.413-16.031l-41.449 16.358c-4.011 1.308-8.357 0-10.362-3.599l-33.428-56.599c-2.005-3.598-1.002-7.852 2.006-10.469l35.433-27.154c-.669-5.235-1.003-10.469-1.003-16.031s.334-10.796 1.003-16.031l-35.433-27.154c-3.343-2.617-4.011-6.871-2.006-10.469l33.428-56.599c2.339-3.599 6.685-4.908 10.362-3.599l41.449 16.358c8.691-6.543 18.385-11.778 28.413-16.031l6.352-43.185c.668-3.926 4.345-6.87 8.356-6.87zm-244.479 249.881c13.112-7.3 29.634-2.542 36.902 10.628 7.269 13.169 2.531 29.762-10.581 37.062-13.113 7.3-29.6342 2.542-36.9026-10.627-7.2682-13.17-2.5307-29.763 10.5816-37.063zm385.118 10.628c7.268-13.17 23.79-17.928 36.902-10.628s17.85 23.893 10.582 37.063c-7.269 13.169-23.79 17.927-36.903 10.627-13.112-7.3-17.85-23.893-10.581-37.062zm-174.066-146.003c-27.744 0-50.14 21.92-50.14 49.074s22.396 49.074 50.14 49.074c27.745 0 50.141-21.92 50.141-49.074s-22.396-49.074-50.141-49.074zm184.647-84.917c13.113-7.3 29.634-2.542 36.903 10.627 7.268 13.169 2.53 29.763-10.582 37.063s-29.634 2.542-36.902-10.628c-7.269-13.169-2.531-29.762 10.581-37.062zm-406.2806 10.627c7.2684-13.169 23.7896-17.927 36.9026-10.627 13.112 7.3 17.85 23.893 10.581 37.062-7.268 13.17-23.79 17.928-36.902 10.628-13.1123-7.3-17.8498-23.894-10.5816-37.063zm221.5916-126.636c14.992 0 27.145 12.2062 27.145 27.2634 0 15.0571-12.153 27.2636-27.145 27.2636s-27.145-12.2065-27.145-27.2636c0-15.0572 12.153-27.2634 27.145-27.2634z" fill="#539bf5"/></svg>