<svg fill="none" height="600" viewBox="0 0 600 600" width="600" xmlns="http://www.w3.org/2000/svg"><path d="m522.09 263.602c2.364 15.116 3.029 30.403 2.019 45.639-5.815 87.691-66.069 165.774-153.954 196.035-24.894 8.572-50.575 12.841-76.068 12.886l-5.082 29.115c.062.901-.363 1.758-1.124 2.268-.761.509-1.751.597-2.616.233l-39.99-36.816-4.182-.905.632-2.37-21.983-20.233c-.702-.609-1.035-1.516-.883-2.399.152-.884.768-1.62 1.631-1.947l80.314-35.776c1.07-.996 2.763-1.049 3.942-.124 1.179.926 1.474 2.538.687 3.757l-5.043 29.021c19.481-.573 39.04-4.11 58.074-10.664 73.244-25.22 123.458-90.293 128.304-163.373.673-10.144.453-20.314-.669-30.419l-1.012-7.565zm-418.048 120.245c24.202-18.722 59.709-15.157 79.307 7.962 19.598 23.12 15.866 57.04-8.336 75.762-24.201 18.722-59.709 15.157-79.3069-7.963-19.5983-23.12-15.8664-57.039 8.3359-75.761zm241.583-115.441c17.487 24.068 11.238 58.418-13.956 76.723-25.195 18.305-59.794 13.633-77.281-10.435-17.486-24.068-11.237-58.418 13.957-76.723s59.794-13.633 77.28 10.435zm-28.091-218.1838 65.524 60.3238c.702.609 1.035 1.516.883 2.399-.152.884-.768 1.62-1.631 1.947l-80.314 35.776c-1.07.996-2.763 1.049-3.942.124-1.179-.926-1.475-2.538-.687-3.757l4.522-25.976c-20.225.358-40.565 3.909-60.34 10.718-85.141 29.317-137.851 111.892-127.373 196.023l.69 4.95-37.0145 6.286c-15.8766-103.048 47.8265-205.341 152.0065-241.2131 25.625-8.8236 52.081-13.0863 78.3-12.8793l5.637-32.2202c-.063-.9009.363-1.7589 1.124-2.2687.761-.5088 1.751-.5969 2.615-.2325zm-38.635 222.2748c-16.796 12.204-20.962 35.103-9.305 51.149 11.658 16.045 34.724 19.16 51.521 6.956 16.796-12.203 20.962-35.103 9.304-51.148-11.657-16.045-34.724-19.16-51.52-6.957zm144.836-129.537c23.503-19.518 59.119-17.139 79.55 5.314 20.431 22.452 17.941 56.475-5.563 75.993-23.503 19.517-59.119 17.138-79.55-5.314-20.431-22.453-17.94-56.476 5.563-75.993z" fill="#539bf5"/></svg>