<svg fill="none" height="600" viewBox="0 0 600 600" width="600" xmlns="http://www.w3.org/2000/svg"><g fill="#539bf5"><path d="m500 347.25c-2.979-3.577-7.153-5.953-11.75-6.688-4.596-.736-9.304.219-13.25 2.688l-175 128.5v5.5c2.525-.299 5.084-.06 7.51.702 2.426.761 4.663 2.028 6.563 3.717 1.901 1.689 3.422 3.761 4.464 6.08 1.042 2.32 1.581 4.833 1.581 7.376 0 2.542-.539 5.056-1.581 7.375-1.042 2.32-2.563 4.392-4.464 6.081-1.9 1.688-4.137 2.955-6.563 3.717s-4.985 1.001-7.51.702c4.06.018 8.013-1.3 11.25-3.75l185.25-136.75c3.609-3.026 5.966-7.285 6.613-11.951s-.463-9.405-3.113-13.299z"/><path d="m300 513c-4.377-.518-8.411-2.625-11.338-5.919-2.927-3.295-4.544-7.549-4.544-11.956s1.617-8.661 4.544-11.956c2.927-3.294 6.961-5.4 11.338-5.919v-5.5l-175-128.5c-3.93-2.522-8.652-3.508-13.263-2.771-4.612.738-8.79 3.149-11.737 6.771-2.6358 3.895-3.6893 8.648-2.9463 13.292.743 4.643 3.2273 8.83 6.9463 11.708l185.25 136.75c3.16 2.415 7.023 3.732 11 3.75z"/><path d="m300 458.5c-7.268 0-14.374 2.155-20.417 6.193-6.044 4.039-10.754 9.778-13.536 16.493-2.781 6.716-3.509 14.105-2.091 21.234 1.418 7.128 4.918 13.677 10.058 18.816 5.139 5.14 11.688 8.64 18.816 10.058 7.129 1.418 14.518.69 21.234-2.091 6.715-2.782 12.454-7.492 16.493-13.536 4.038-6.043 6.193-13.149 6.193-20.417 0-9.747-3.872-19.094-10.764-25.986s-16.239-10.764-25.986-10.764zm0 54.5c-3.571 0-7.06-1.063-10.026-3.052-2.965-1.989-5.272-4.815-6.626-8.119-1.355-3.303-1.697-6.935-.982-10.434.715-3.498 2.455-6.704 4.997-9.212 2.543-2.507 5.773-4.201 9.281-4.867s7.135-.274 10.419 1.127c3.285 1.401 6.078 3.747 8.026 6.74 1.947 2.992 2.961 6.497 2.911 10.067 0 2.352-.467 4.681-1.375 6.851-.907 2.17-2.237 4.138-3.912 5.789-1.675 1.652-3.661 2.954-5.844 3.831-2.182.877-4.517 1.312-6.869 1.279z"/><path d="m150 152.75c-4.953-.065-9.684-2.061-13.187-5.563-3.502-3.503-5.498-8.234-5.563-13.187v-46.9999c-.307-2.6611-.047-5.357.761-7.9108.809-2.5538 2.148-4.9078 3.931-6.9074 1.782-1.9997 3.967-3.5999 6.411-4.6956 2.445-1.0957 5.093-1.6621 7.772-1.6621s5.327.5664 7.772 1.6621c2.444 1.0957 4.629 2.6959 6.411 4.6956 1.783 1.9996 3.122 4.3536 3.931 6.9074.808 2.5538 1.068 5.2497.761 7.9108v46.9999c-.066 4.996-2.096 9.764-5.653 13.274-3.556 3.509-8.351 5.477-13.347 5.476z"/><path d="m149.5 319c10.493 0 19-8.507 19-19s-8.507-19-19-19-19 8.507-19 19 8.507 19 19 19z"/><path d="m149.5 263.75c10.493 0 19-8.507 19-19s-8.507-19-19-19-19 8.507-19 19 8.507 19 19 19z"/><path d="m149.5 208.25c10.493 0 19-8.507 19-19s-8.507-19-19-19-19 8.507-19 19 8.507 19 19 19z"/><path d="m450 207.75c-4.996-.066-9.764-2.096-13.274-5.653-3.509-3.556-5.476-8.351-5.476-13.347v-47c0-4.973 1.975-9.742 5.492-13.258 3.516-3.517 8.285-5.492 13.258-5.492s9.742 1.975 13.258 5.492c3.517 3.516 5.492 8.285 5.492 13.258v47c.033 2.483-.427 4.948-1.355 7.252-.927 2.304-2.303 4.4-4.048 6.168-1.744 1.768-3.822 3.171-6.113 4.129-2.292.958-4.751 1.451-7.234 1.451z"/><path d="m450.5 319.25c10.493 0 19-8.507 19-19s-8.507-19-19-19-19 8.507-19 19 8.507 19 19 19z"/><path d="m450.5 263c10.493 0 19-8.507 19-19s-8.507-19-19-19-19 8.507-19 19 8.507 19 19 19z"/><path d="m450.5 106c10.493 0 19-8.5066 19-19s-8.507-19-19-19-19 8.5066-19 19 8.507 19 19 19z"/><path d="m300 375c-4.953-.065-9.684-2.061-13.187-5.563-3.502-3.503-5.498-8.234-5.563-13.187v-47.75c.534-4.632 2.752-8.905 6.233-12.008 3.48-3.102 7.98-4.816 12.642-4.816s9.162 1.714 12.642 4.816c3.481 3.103 5.699 7.376 6.233 12.008v47.25c.033 2.516-.434 5.014-1.374 7.348s-2.334 4.458-4.102 6.249c-1.767 1.791-3.873 3.213-6.195 4.183-2.321.971-4.813 1.47-7.329 1.47z"/><path d="m300 430.25c10.493 0 19-8.507 19-19s-8.507-19-19-19-19 8.507-19 19 8.507 19 19 19z"/><path d="m300 272.5c10.493 0 19-8.507 19-19s-8.507-19-19-19-19 8.507-19 19 8.507 19 19 19z"/><path d="m300 217c10.493 0 19-8.507 19-19s-8.507-19-19-19-19 8.507-19 19 8.507 19 19 19z"/><path d="m375 263.5c-4.953-.065-9.684-2.061-13.187-5.563-3.502-3.503-5.498-8.234-5.563-13.187v-47c-.307-2.661-.047-5.357.761-7.911.809-2.554 2.148-4.907 3.931-6.907 1.782-2 3.967-3.6 6.411-4.696 2.445-1.095 5.093-1.662 7.772-1.662s5.327.567 7.772 1.662c2.444 1.096 4.629 2.696 6.411 4.696 1.783 2 3.122 4.353 3.931 6.907.808 2.554 1.068 5.25.761 7.911v47c-.066 4.996-2.096 9.764-5.653 13.274-3.556 3.509-8.351 5.477-13.347 5.476z"/><path d="m375.25 161.25c10.493 0 19-8.507 19-19s-8.507-19-19-19-19 8.507-19 19 8.507 19 19 19z"/><path d="m375.25 373.75c10.493 0 19-8.507 19-19s-8.507-19-19-19-19 8.507-19 19 8.507 19 19 19z"/><path d="m375.25 318.25c10.493 0 19-8.507 19-19s-8.507-19-19-19-19 8.507-19 19 8.507 19 19 19z"/><path d="m224.75 373.75c10.493 0 19-8.507 19-19s-8.507-19-19-19-19 8.507-19 19 8.507 19 19 19z"/><path d="m224.75 217c10.493 0 19-8.507 19-19s-8.507-19-19-19-19 8.507-19 19 8.507 19 19 19z"/><path d="m224.75 161.25c10.493 0 19-8.507 19-19s-8.507-19-19-19-19 8.507-19 19 8.507 19 19 19z"/><path d="m225 318.25c-4.912.004-9.634-1.895-13.177-5.297-3.542-3.403-5.629-8.045-5.823-12.953v-47.5c0-4.973 1.975-9.742 5.492-13.258 3.516-3.517 8.285-5.492 13.258-5.492s9.742 1.975 13.258 5.492c3.517 3.516 5.492 8.285 5.492 13.258v47.5c-.129 4.843-2.127 9.448-5.576 12.85-3.448 3.402-8.08 5.337-12.924 5.4z"/></g></svg>