<svg fill="none" height="600" viewBox="0 0 600 600" width="600" xmlns="http://www.w3.org/2000/svg"><g fill="#539bf5"><path d="m300 340c22.091 0 40-17.909 40-40s-17.909-40-40-40-40 17.909-40 40 17.909 40 40 40z"/><path clip-rule="evenodd" d="m189.5 230h159.25l18.5-17.5-18.5-17.5h-159.25z" fill-rule="evenodd"/><path d="m170 243.25c16.983 0 30.75-13.767 30.75-30.75s-13.767-30.75-30.75-30.75-30.75 13.767-30.75 30.75 13.767 30.75 30.75 30.75z"/><path d="m430 252.5c22.091 0 40-17.909 40-40s-17.909-40-40-40-40 17.909-40 40 17.909 40 40 40z"/><path clip-rule="evenodd" d="m234 387.5 18.5 17.5h157v-35h-157z" fill-rule="evenodd"/><path d="m170 427.5c22.091 0 40-17.909 40-40s-17.909-40-40-40-40 17.909-40 40 17.909 40 40 40z"/><path d="m430 418.25c16.983 0 30.75-13.767 30.75-30.75s-13.767-30.75-30.75-30.75-30.75 13.767-30.75 30.75 13.767 30.75 30.75 30.75z"/><path clip-rule="evenodd" d="m104.5 125h317l18.5-17.5-18.5-17.5h-317z" fill-rule="evenodd"/><path d="m90 138.25c16.983 0 30.75-13.767 30.75-30.75 0-16.9827-13.767-30.75-30.75-30.75-16.9828 0-30.75 13.7673-30.75 30.75 0 16.983 13.7672 30.75 30.75 30.75z"/><path d="m510 147.5c22.091 0 40-17.909 40-40 0-22.0914-17.909-40-40-40s-40 17.9086-40 40c0 22.091 17.909 40 40 40z"/><path clip-rule="evenodd" d="m160 492.5 18.5 17.5h317.5v-35h-317.5z" fill-rule="evenodd"/><path d="m90 532.5c22.091 0 40-17.909 40-40s-17.909-40-40-40c-22.0914 0-40 17.909-40 40s17.9086 40 40 40z"/><path d="m510 523.25c16.983 0 30.75-13.767 30.75-30.75s-13.767-30.75-30.75-30.75-30.75 13.767-30.75 30.75 13.767 30.75 30.75 30.75z"/></g></svg>